<svg width="463" height="463" viewBox="0 0 463 463" fill="none" xmlns="http://www.w3.org/2000/svg">
<circle cx="231.5" cy="231.5" r="231.5" fill="white"/>
<path d="M151.33 106.513C135.65 107.549 118.593 114.025 104.619 124.256C97.8612 129.242 88.0202 139.215 82.9685 146.208C75.227 157.087 68.9287 171.658 65.714 186.033C64.4019 192.056 64.2707 194.646 64.2051 208.374C64.2051 224.433 64.9924 231.039 68.1415 241.594L69.1912 244.961H94.384H119.643L129.418 225.664C136.766 211.223 139.652 206.043 141.03 205.136C143.917 203.258 148.444 203.129 151.658 204.748C154.348 206.108 154.676 206.626 171.734 240.234L189.054 274.425L206.309 240.428C218.511 216.469 224.154 206.108 225.334 205.266C228.09 203.323 232.289 203.194 235.766 204.942C238.653 206.431 238.849 206.69 248.559 225.664L258.4 244.896L294.287 245.091C329.321 245.285 330.174 245.285 331.945 246.645C334.897 248.782 336.341 251.178 336.603 254.48C336.931 257.977 335.422 260.826 332.011 263.352C330.174 264.712 329.517 264.712 291.335 264.906C269.947 265.035 251.577 264.906 250.396 264.712C246.394 263.999 244.492 261.539 237.8 248.264L231.37 235.571L214.05 269.568C194.499 307.968 195.287 306.803 188.529 306.35C186.495 306.22 184.134 305.573 183.084 304.86C181.641 303.954 177.311 295.859 164.058 269.763L146.869 235.895L140.965 247.681C137.684 254.092 134.338 260.243 133.485 261.28C130.336 265.035 130.533 265.035 102.585 265.035C88.5451 265.035 76.9983 265.23 76.9983 265.489C76.9983 265.683 78.9009 269.568 81.3284 274.036C105.078 319.042 152.643 361.91 220.02 399.274C231.239 405.491 231.698 405.491 241.146 400.375C309.508 362.817 358.122 318.847 381.871 273.065C392.959 251.696 398.011 233.564 398.863 212.259C400.11 182.018 389.154 153.591 368.619 133.257C336.078 101.203 290.022 96.7998 253.808 122.249C247.772 126.523 237.012 136.495 233.076 141.546L230.911 144.331L226.187 138.762C214.969 125.551 199.158 114.931 183.478 110.01C172.915 106.772 163.402 105.736 151.33 106.513Z" fill="#DE1F55"/>
</svg>
