<svg width="237" height="39" viewBox="0 0 237 39" fill="none" xmlns="http://www.w3.org/2000/svg">
<g clip-path="url(#clip0_95_25)">
<mask id="mask0_95_25" style="mask-type:luminance" maskUnits="userSpaceOnUse" x="0" y="0" width="237" height="39">
<path d="M237 0H0V39H237V0Z" fill="white"/>
</mask>
<g mask="url(#mask0_95_25)">
<path d="M70.52 39H65.42V20.91H57.215V39H52.115V17.145H70.52V39ZM82.4715 27.87C83.7915 27.87 84.7415 27.555 85.3215 26.925C85.9015 26.295 86.1915 25.415 86.1915 24.285C86.1915 23.785 86.1165 23.33 85.9665 22.92C85.8165 22.51 85.5865 22.16 85.2765 21.87C84.9765 21.57 84.5915 21.34 84.1215 21.18C83.6615 21.02 83.1115 20.94 82.4715 20.94H79.8315V27.87H82.4715ZM82.4715 17.145C84.0115 17.145 85.3315 17.33 86.4315 17.7C87.5415 18.06 88.4515 18.56 89.1615 19.2C89.8815 19.84 90.4115 20.595 90.7515 21.465C91.0915 22.335 91.2615 23.275 91.2615 24.285C91.2615 25.375 91.0865 26.375 90.7365 27.285C90.3865 28.195 89.8515 28.975 89.1315 29.625C88.4115 30.275 87.4965 30.785 86.3865 31.155C85.2865 31.515 83.9815 31.695 82.4715 31.695H79.8315V39H74.7615V17.145H82.4715ZM112.914 17.145V39H107.814V26.76C107.814 26.19 107.829 25.59 107.859 24.96C107.899 24.32 107.969 23.64 108.069 22.92C107.839 23.56 107.589 24.155 107.319 24.705C107.049 25.245 106.784 25.72 106.524 26.13L99.8788 37.485C99.7688 37.665 99.6338 37.845 99.4738 38.025C99.3238 38.205 99.1538 38.37 98.9638 38.52C98.7738 38.66 98.5688 38.775 98.3488 38.865C98.1288 38.955 97.8988 39 97.6588 39H93.8338V17.145H98.9338V29.37C98.9338 29.94 98.9188 30.545 98.8888 31.185C98.8588 31.815 98.7888 32.49 98.6788 33.21C98.9088 32.58 99.1588 31.995 99.4287 31.455C99.6988 30.905 99.9638 30.425 100.224 30.015L106.869 18.66C106.979 18.48 107.109 18.3 107.259 18.12C107.419 17.94 107.594 17.78 107.784 17.64C107.974 17.49 108.179 17.37 108.399 17.28C108.619 17.19 108.849 17.145 109.089 17.145H112.914ZM115.909 19.23C116.759 18.51 117.804 17.945 119.044 17.535C120.294 17.115 121.644 16.905 123.094 16.905C124.324 16.905 125.434 17.05 126.424 17.34C127.424 17.62 128.274 18.015 128.974 18.525C129.674 19.035 130.209 19.65 130.579 20.37C130.959 21.08 131.149 21.865 131.149 22.725C131.149 23.705 130.934 24.615 130.504 25.455C130.084 26.285 129.419 26.975 128.509 27.525C128.969 27.765 129.394 28.045 129.784 28.365C130.174 28.675 130.504 29.02 130.774 29.4C131.054 29.77 131.269 30.175 131.419 30.615C131.579 31.045 131.659 31.505 131.659 31.995C131.659 33.005 131.469 33.95 131.089 34.83C130.719 35.7 130.174 36.46 129.454 37.11C128.734 37.76 127.849 38.275 126.799 38.655C125.749 39.025 124.549 39.21 123.199 39.21C122.449 39.21 121.694 39.14 120.934 39C120.174 38.86 119.439 38.665 118.729 38.415C118.029 38.155 117.369 37.85 116.749 37.5C116.139 37.15 115.599 36.76 115.129 36.33L116.629 33.96C116.749 33.79 116.904 33.65 117.094 33.54C117.294 33.42 117.509 33.36 117.739 33.36C118.049 33.36 118.369 33.455 118.699 33.645C119.029 33.835 119.404 34.045 119.824 34.275C120.254 34.505 120.754 34.715 121.324 34.905C121.894 35.095 122.569 35.19 123.349 35.19C123.909 35.19 124.409 35.14 124.849 35.04C125.289 34.93 125.659 34.755 125.959 34.515C126.269 34.275 126.504 33.965 126.664 33.585C126.824 33.205 126.904 32.74 126.904 32.19C126.904 31.76 126.809 31.38 126.619 31.05C126.439 30.72 126.179 30.445 125.839 30.225C125.509 29.995 125.109 29.825 124.639 29.715C124.179 29.605 123.669 29.555 123.109 29.565H119.929L119.914 25.635H122.689C123.949 25.635 124.884 25.425 125.494 25.005C126.104 24.575 126.409 23.955 126.409 23.145C126.409 22.455 126.129 21.91 125.569 21.51C125.009 21.1 124.169 20.895 123.049 20.895C122.399 20.895 121.829 20.97 121.339 21.12C120.859 21.26 120.429 21.42 120.049 21.6C119.679 21.78 119.349 21.945 119.059 22.095C118.779 22.235 118.519 22.305 118.279 22.305C118.019 22.305 117.804 22.245 117.634 22.125C117.474 22.005 117.319 21.825 117.169 21.585L115.909 19.23ZM143.401 35.175C144.071 35.175 144.616 35.09 145.036 34.92C145.466 34.75 145.801 34.53 146.041 34.26C146.281 33.99 146.446 33.685 146.536 33.345C146.626 33.005 146.671 32.66 146.671 32.31C146.671 31.91 146.616 31.55 146.506 31.23C146.406 30.91 146.226 30.64 145.966 30.42C145.716 30.2 145.381 30.03 144.961 29.91C144.541 29.79 144.011 29.73 143.371 29.73H139.831V35.175H143.401ZM139.831 20.94V26.34H142.471C143.031 26.34 143.536 26.3 143.986 26.22C144.436 26.14 144.816 26 145.126 25.8C145.446 25.6 145.686 25.325 145.846 24.975C146.016 24.625 146.101 24.185 146.101 23.655C146.101 23.135 146.036 22.705 145.906 22.365C145.776 22.015 145.576 21.735 145.306 21.525C145.036 21.315 144.691 21.165 144.271 21.075C143.861 20.985 143.371 20.94 142.801 20.94H139.831ZM142.801 17.145C144.311 17.145 145.596 17.285 146.656 17.565C147.716 17.845 148.581 18.24 149.251 18.75C149.921 19.26 150.406 19.88 150.706 20.61C151.016 21.34 151.171 22.155 151.171 23.055C151.171 23.545 151.101 24.02 150.961 24.48C150.821 24.93 150.601 25.355 150.301 25.755C150.001 26.145 149.616 26.505 149.146 26.835C148.676 27.165 148.111 27.45 147.451 27.69C148.891 28.04 149.956 28.605 150.646 29.385C151.336 30.165 151.681 31.175 151.681 32.415C151.681 33.345 151.501 34.21 151.141 35.01C150.781 35.81 150.251 36.51 149.551 37.11C148.861 37.7 148.006 38.165 146.986 38.505C145.966 38.835 144.801 39 143.491 39H134.761V17.145H142.801ZM166.027 30.645L164.002 24.66C163.852 24.28 163.692 23.835 163.522 23.325C163.352 22.805 163.182 22.245 163.012 21.645C162.862 22.255 162.702 22.82 162.532 23.34C162.362 23.86 162.202 24.31 162.052 24.69L160.042 30.645H166.027ZM174.082 39H170.152C169.712 39 169.357 38.9 169.087 38.7C168.817 38.49 168.612 38.225 168.472 37.905L167.182 34.095H158.872L157.582 37.905C157.472 38.185 157.272 38.44 156.982 38.67C156.702 38.89 156.352 39 155.932 39H151.972L160.432 17.145H165.622L174.082 39ZM194.828 17.145V39H189.728V29.76H180.848V39H175.748V17.145H180.848V26.28H189.728V17.145H194.828ZM218.148 17.145V39H213.048V26.76C213.048 26.19 213.063 25.59 213.093 24.96C213.133 24.32 213.203 23.64 213.303 22.92C213.073 23.56 212.823 24.155 212.553 24.705C212.283 25.245 212.018 25.72 211.758 26.13L205.113 37.485C205.003 37.665 204.868 37.845 204.708 38.025C204.558 38.205 204.388 38.37 204.198 38.52C204.008 38.66 203.803 38.775 203.583 38.865C203.363 38.955 203.133 39 202.893 39H199.068V17.145H204.168V29.37C204.168 29.94 204.153 30.545 204.123 31.185C204.093 31.815 204.023 32.49 203.913 33.21C204.143 32.58 204.393 31.995 204.663 31.455C204.933 30.905 205.198 30.425 205.458 30.015L212.103 18.66C212.213 18.48 212.343 18.3 212.493 18.12C212.653 17.94 212.828 17.78 213.018 17.64C213.208 17.49 213.413 17.37 213.633 17.28C213.853 17.19 214.083 17.145 214.323 17.145H218.148ZM227.488 21.045V26.145H234.358V29.895H227.488V35.1H236.458V39H222.388V17.145H236.458V21.045H227.488Z" fill="#333333"/>
<path d="M59.4225 8.17252C59.4825 8.17252 59.5425 8.18502 59.6025 8.21002C59.6625 8.23002 59.72 8.26752 59.775 8.32252L60.7799 9.38002C60.3399 9.95502 59.7875 10.39 59.1225 10.685C58.4625 10.975 57.68 11.12 56.775 11.12C55.945 11.12 55.2 10.98 54.54 10.7C53.885 10.415 53.3275 10.025 52.8675 9.53002C52.4125 9.03002 52.0625 8.44002 51.8175 7.76002C51.5725 7.07502 51.45 6.33252 51.45 5.53252C51.45 4.71752 51.5825 3.97002 51.8475 3.29002C52.1125 2.60502 52.485 2.01502 52.965 1.52002C53.445 1.02502 54.0199 0.640019 54.6899 0.365018C55.3599 0.090019 56.0975 -0.0474809 56.9025 -0.0474809C57.3125 -0.0474809 57.6974 -0.00998089 58.0574 0.065019C58.4224 0.135019 58.7624 0.235018 59.0774 0.365018C59.3924 0.49002 59.6824 0.642519 59.9474 0.822518C60.2124 1.00252 60.4475 1.19752 60.6525 1.40752L59.7975 2.55502C59.7425 2.62502 59.6775 2.69002 59.6025 2.75002C59.5275 2.80502 59.4224 2.83252 59.2874 2.83252C59.1974 2.83252 59.1125 2.81252 59.0325 2.77252C58.9525 2.73252 58.8675 2.68502 58.7775 2.63002C58.6875 2.57002 58.5875 2.50752 58.4775 2.44252C58.3725 2.37252 58.245 2.31002 58.095 2.25502C57.95 2.19502 57.7774 2.14502 57.5774 2.10502C57.3824 2.06502 57.1525 2.04502 56.8875 2.04502C56.4675 2.04502 56.0824 2.12252 55.7324 2.27752C55.3874 2.43252 55.0875 2.66002 54.8325 2.96002C54.5825 3.25502 54.3875 3.62002 54.2475 4.05502C54.1125 4.48502 54.0449 4.97752 54.0449 5.53252C54.0449 6.09252 54.12 6.59002 54.27 7.02502C54.425 7.46002 54.6325 7.82752 54.8925 8.12752C55.1575 8.42252 55.4649 8.64752 55.8149 8.80252C56.1649 8.95752 56.5399 9.03502 56.9399 9.03502C57.1699 9.03502 57.38 9.02502 57.57 9.00502C57.76 8.98002 57.9375 8.94252 58.1025 8.89252C58.2675 8.83752 58.4225 8.76752 58.5675 8.68252C58.7125 8.59252 58.8599 8.48002 59.0099 8.34502C59.0699 8.29502 59.135 8.25502 59.205 8.22502C59.275 8.19002 59.3475 8.17252 59.4225 8.17252ZM71.0891 11H68.5391V1.95502H64.4366V11H61.8866V0.0725194H71.0891V11ZM77.2147 9.08752C77.5497 9.08752 77.8248 9.05002 78.0398 8.97502C78.2548 8.90002 78.4222 8.80002 78.5422 8.67502C78.6672 8.54502 78.7523 8.40002 78.7973 8.24002C78.8423 8.08002 78.8647 7.91252 78.8647 7.73752C78.8647 7.53752 78.8423 7.35252 78.7973 7.18252C78.7523 7.01252 78.6672 6.86752 78.5422 6.74752C78.4222 6.62252 78.2548 6.52752 78.0398 6.46252C77.8248 6.39252 77.5497 6.35752 77.2147 6.35752H75.7447V9.08752H77.2147ZM77.2147 4.44502C77.9697 4.44502 78.6098 4.52752 79.1348 4.69252C79.6648 4.85752 80.0947 5.08002 80.4247 5.36002C80.7547 5.63502 80.9947 5.95752 81.1447 6.32752C81.2947 6.69252 81.3697 7.07752 81.3697 7.48252C81.3697 8.00752 81.2748 8.48752 81.0848 8.92252C80.8998 9.35252 80.6298 9.72252 80.2748 10.0325C79.9198 10.3375 79.4848 10.575 78.9698 10.745C78.4548 10.915 77.8697 11 77.2147 11H73.2098V0.0725194H80.9497V1.97002H75.7447V4.44502H77.2147ZM90.1166 5.43502C90.7766 5.43502 91.2516 5.27752 91.5416 4.96252C91.8316 4.64752 91.9766 4.20752 91.9766 3.64252C91.9766 3.39252 91.939 3.16502 91.864 2.96002C91.789 2.75502 91.674 2.58002 91.519 2.43502C91.369 2.28502 91.1765 2.17002 90.9415 2.09002C90.7115 2.01002 90.4366 1.97002 90.1166 1.97002H88.7966V5.43502H90.1166ZM90.1166 0.0725194C90.8866 0.0725194 91.5466 0.16502 92.0966 0.350019C92.6516 0.530019 93.1066 0.78002 93.4616 1.10002C93.8216 1.42002 94.0866 1.79752 94.2565 2.23252C94.4265 2.66752 94.5115 3.13752 94.5115 3.64252C94.5115 4.18752 94.424 4.68752 94.2491 5.14252C94.0741 5.59752 93.8066 5.98752 93.4466 6.31252C93.0866 6.63752 92.629 6.89252 92.074 7.07752C91.524 7.25752 90.8716 7.34752 90.1166 7.34752H88.7966V11H86.2615V0.0725194H90.1166ZM106.523 5.53252C106.523 6.32252 106.385 7.05752 106.11 7.73752C105.84 8.41752 105.458 9.01002 104.963 9.51502C104.468 10.015 103.87 10.4075 103.17 10.6925C102.475 10.9775 101.703 11.12 100.853 11.12C100.003 11.12 99.2277 10.9775 98.5277 10.6925C97.8277 10.4075 97.2276 10.015 96.7276 9.51502C96.2327 9.01002 95.8477 8.41752 95.5727 7.73752C95.3027 7.05752 95.1677 6.32252 95.1677 5.53252C95.1677 4.74252 95.3027 4.00752 95.5727 3.32752C95.8477 2.64752 96.2327 2.05752 96.7276 1.55752C97.2276 1.05752 97.8277 0.66502 98.5277 0.38002C99.2277 0.0950193 100.003 -0.0474809 100.853 -0.0474809C101.703 -0.0474809 102.475 0.097519 103.17 0.387519C103.87 0.67252 104.468 1.06502 104.963 1.56502C105.458 2.06502 105.84 2.65502 106.11 3.33502C106.385 4.01502 106.523 4.74752 106.523 5.53252ZM103.928 5.53252C103.928 4.99252 103.858 4.50752 103.718 4.07752C103.578 3.64252 103.375 3.27502 103.11 2.97502C102.85 2.67502 102.53 2.44502 102.15 2.28502C101.77 2.12502 101.338 2.04502 100.853 2.04502C100.363 2.04502 99.9251 2.12502 99.5401 2.28502C99.1601 2.44502 98.8377 2.67502 98.5727 2.97502C98.3127 3.27502 98.1127 3.64252 97.9727 4.07752C97.8327 4.50752 97.7627 4.99252 97.7627 5.53252C97.7627 6.07752 97.8327 6.56752 97.9727 7.00252C98.1127 7.43252 98.3127 7.79752 98.5727 8.09752C98.8377 8.39752 99.1601 8.62752 99.5401 8.78752C99.9251 8.94252 100.363 9.02002 100.853 9.02002C101.338 9.02002 101.77 8.94252 102.15 8.78752C102.53 8.62752 102.85 8.39752 103.11 8.09752C103.375 7.79752 103.578 7.43252 103.718 7.00252C103.858 6.56752 103.928 6.07752 103.928 5.53252ZM118.74 5.53252C118.74 6.32252 118.602 7.05752 118.327 7.73752C118.057 8.41752 117.675 9.01002 117.18 9.51502C116.685 10.015 116.087 10.4075 115.387 10.6925C114.692 10.9775 113.92 11.12 113.07 11.12C112.22 11.12 111.445 10.9775 110.745 10.6925C110.045 10.4075 109.445 10.015 108.945 9.51502C108.45 9.01002 108.065 8.41752 107.79 7.73752C107.52 7.05752 107.385 6.32252 107.385 5.53252C107.385 4.74252 107.52 4.00752 107.79 3.32752C108.065 2.64752 108.45 2.05752 108.945 1.55752C109.445 1.05752 110.045 0.66502 110.745 0.38002C111.445 0.0950193 112.22 -0.0474809 113.07 -0.0474809C113.92 -0.0474809 114.692 0.097519 115.387 0.387519C116.087 0.67252 116.685 1.06502 117.18 1.56502C117.675 2.06502 118.057 2.65502 118.327 3.33502C118.602 4.01502 118.74 4.74752 118.74 5.53252ZM116.145 5.53252C116.145 4.99252 116.075 4.50752 115.935 4.07752C115.795 3.64252 115.592 3.27502 115.327 2.97502C115.067 2.67502 114.747 2.44502 114.367 2.28502C113.987 2.12502 113.555 2.04502 113.07 2.04502C112.58 2.04502 112.142 2.12502 111.757 2.28502C111.377 2.44502 111.055 2.67502 110.79 2.97502C110.53 3.27502 110.33 3.64252 110.19 4.07752C110.05 4.50752 109.98 4.99252 109.98 5.53252C109.98 6.07752 110.05 6.56752 110.19 7.00252C110.33 7.43252 110.53 7.79752 110.79 8.09752C111.055 8.39752 111.377 8.62752 111.757 8.78752C112.142 8.94252 112.58 9.02002 113.07 9.02002C113.555 9.02002 113.987 8.94252 114.367 8.78752C114.747 8.62752 115.067 8.39752 115.327 8.09752C115.592 7.79752 115.795 7.43252 115.935 7.00252C116.075 6.56752 116.145 6.07752 116.145 5.53252ZM135.988 0.0725194V11H133.753V4.71502C133.753 4.57002 133.756 4.41252 133.761 4.24252C133.771 4.07252 133.786 3.90002 133.806 3.72502L130.903 9.34252C130.813 9.51752 130.691 9.65002 130.536 9.74002C130.386 9.83002 130.213 9.87502 130.018 9.87502H129.673C129.478 9.87502 129.303 9.83002 129.148 9.74002C128.998 9.65002 128.878 9.51752 128.788 9.34252L125.886 3.71002C125.901 3.89002 125.913 4.06752 125.923 4.24252C125.933 4.41252 125.938 4.57002 125.938 4.71502V11H123.703V0.0725194H125.638C125.748 0.0725194 125.843 0.0750192 125.923 0.0800188C126.008 0.0850191 126.083 0.100019 126.148 0.12502C126.213 0.15002 126.271 0.19002 126.321 0.24502C126.376 0.29502 126.428 0.367519 126.478 0.462519L129.291 6.00502C129.391 6.19502 129.486 6.39252 129.576 6.59752C129.671 6.80252 129.761 7.01252 129.846 7.22752C129.931 7.00752 130.018 6.79252 130.108 6.58252C130.203 6.37252 130.303 6.17252 130.408 5.98252L133.213 0.462519C133.263 0.367519 133.313 0.29502 133.363 0.24502C133.418 0.19002 133.478 0.15002 133.543 0.12502C133.608 0.100019 133.681 0.0850191 133.761 0.0800188C133.846 0.0750192 133.943 0.0725194 134.053 0.0725194H135.988ZM144.432 7.82002C144.737 7.81002 145.017 7.74002 145.272 7.61002C145.532 7.47502 145.755 7.29502 145.94 7.07002C146.13 6.84502 146.277 6.58252 146.382 6.28252C146.487 5.98252 146.54 5.66002 146.54 5.31502C146.54 4.97002 146.487 4.65002 146.382 4.35502C146.277 4.05502 146.13 3.79252 145.94 3.56752C145.755 3.34252 145.532 3.16252 145.272 3.02752C145.017 2.89252 144.737 2.82002 144.432 2.81002V7.82002ZM142.032 2.81002C141.722 2.82002 141.437 2.89252 141.177 3.02752C140.922 3.16252 140.702 3.34252 140.517 3.56752C140.332 3.79252 140.187 4.05502 140.082 4.35502C139.977 4.65002 139.925 4.97002 139.925 5.31502C139.925 5.66002 139.977 5.98252 140.082 6.28252C140.187 6.58252 140.332 6.84502 140.517 7.07002C140.702 7.29502 140.922 7.47502 141.177 7.61002C141.437 7.74002 141.722 7.81002 142.032 7.82002V2.81002ZM144.432 0.92752C145.092 0.95252 145.705 1.08502 146.27 1.32502C146.835 1.56002 147.325 1.87502 147.74 2.27002C148.155 2.66502 148.48 3.12252 148.715 3.64252C148.95 4.16252 149.067 4.72002 149.067 5.31502C149.067 5.91002 148.95 6.47002 148.715 6.99502C148.48 7.51502 148.155 7.97252 147.74 8.36752C147.325 8.76252 146.835 9.08002 146.27 9.32002C145.705 9.55502 145.092 9.68502 144.432 9.71002V11H142.032V9.71002C141.372 9.68502 140.76 9.55502 140.195 9.32002C139.63 9.08002 139.137 8.76252 138.717 8.36752C138.302 7.97252 137.977 7.51502 137.742 6.99502C137.507 6.47002 137.39 5.91002 137.39 5.31502C137.39 4.72002 137.507 4.16252 137.742 3.64252C137.977 3.12252 138.302 2.66502 138.717 2.27002C139.132 1.87502 139.622 1.56002 140.187 1.32502C140.757 1.08502 141.372 0.95252 142.032 0.92752V-0.35498H144.432V0.92752Z" fill="#0065B1"/>
<mask id="mask1_95_25" style="mask-type:luminance" maskUnits="userSpaceOnUse" x="0" y="0" width="46" height="39">
<path d="M45.9081 0H0V39H45.9081V0Z" fill="white"/>
</mask>
<g mask="url(#mask1_95_25)">
<path d="M45.4584 23.8662C45.731 23.4048 46.106 22.6485 45.784 21.4383C45.2794 19.5422 43.1038 18.5956 41.3174 19.4125C40.7925 19.6546 40.3117 20.3307 37.0763 23.7654L33.7972 27.0732H31.4192H29.6429V26.5392C29.6429 24.6155 28.5068 23.7352 26.583 23.7654H22.6687L18.1975 23.7352L17.5718 23.2309C16.8653 22.656 15.6239 22.0206 14.7357 21.7685C13.2823 21.3752 11.2435 21.5063 9.83054 22.0812C8.51848 22.6056 7.90282 23.13 3.88584 27.1338L3.4104 27.5886L11.2804 35.3273H22.6687H33.2057L39.0875 30.824C42.5797 27.3245 45.3713 24.0138 45.4584 23.8662Z" fill="#FFCDBD"/>
<path d="M0 30.9963L3.76009 34.7152L12.6794 28.9002H26.583C27.9383 28.8565 29.6428 28.6816 29.6428 26.5392C29.6428 24.6155 28.5067 23.7352 26.583 23.7654H22.6686L18.1975 23.7352L17.5717 23.2309C16.8652 22.656 15.6238 22.0207 14.7356 21.7686C13.2822 21.3752 11.2435 21.5063 9.83045 22.0812C8.5184 22.6056 7.90273 23.1301 3.88576 27.1338L0 30.9963Z" fill="#FFDECE"/>
<path d="M8.05378 38.9563L11.6738 35.7208L3.41031 27.5886L0 30.9963L0.756967 31.7629C1.15695 32.1723 3.14114 34.127 5.21472 36.1698L5.42997 36.3818L8.05378 38.9563Z" fill="#205295"/>
<path d="M0.756966 31.7629C1.17078 32.1865 1.61031 32.5974 3.76009 34.7152L7.86996 32.0045L3.41031 27.5886L0 30.9963L0.756966 31.7629Z" fill="#2C74B3"/>
<path d="M17.8205 0.0512305C16.7064 0.125951 15.4945 0.592951 14.5015 1.33081C14.0215 1.6904 13.3223 2.40958 12.9633 2.91395C12.4133 3.6985 11.9657 4.74926 11.7373 5.786C11.6441 6.22031 11.6348 6.40711 11.6301 7.39715C11.6301 8.55531 11.6861 9.03165 11.9098 9.79285L11.9844 10.0357H13.7744H15.569L16.2636 8.64404C16.7856 7.60263 16.9908 7.22903 17.0886 7.16364C17.2938 7.02822 17.6154 7.01888 17.8438 7.13563C18.035 7.2337 18.0582 7.27106 19.2702 9.69482L20.5008 12.1606L21.7268 9.70881C22.5939 7.9809 22.9947 7.2337 23.0786 7.17299C23.2743 7.03289 23.5727 7.02355 23.8197 7.14964C24.0249 7.25705 24.0389 7.27573 24.7287 8.64404L25.428 10.031L27.9778 10.045C30.467 10.059 30.5276 10.059 30.6534 10.1571C30.8632 10.3112 30.9657 10.484 30.9844 10.7222C31.0077 10.9744 30.9005 11.1799 30.6581 11.3619C30.5276 11.4601 30.4809 11.4601 27.768 11.474C26.2484 11.4834 24.9432 11.474 24.8593 11.4601C24.5749 11.4087 24.4397 11.2312 23.9643 10.2739L23.5075 9.35851L22.2769 11.8103C20.8877 14.5796 20.9437 14.4956 20.4635 14.4629C20.319 14.4535 20.1512 14.4068 20.0766 14.3555C19.9741 14.2901 19.6664 13.7063 18.7248 11.8243L17.5036 9.38186L17.084 10.2318C16.851 10.6941 16.6132 11.1378 16.5526 11.2125C16.3288 11.4834 16.3428 11.4834 14.3571 11.4834C13.3595 11.4834 12.5391 11.4974 12.5391 11.5161C12.5391 11.5301 12.6743 11.8103 12.8467 12.1325C14.5342 15.3782 17.9138 18.4697 22.7011 21.1643C23.4981 21.6126 23.5307 21.6126 24.202 21.2437C29.0592 18.5351 32.5133 15.3642 34.2007 12.0625C34.9885 10.5213 35.3475 9.21379 35.4081 7.67735C35.4966 5.49646 34.7182 3.44632 33.2591 1.97994C30.9471 -0.33171 27.6748 -0.649271 25.1017 1.18604C24.6728 1.49426 23.9083 2.21344 23.6287 2.5777L23.4748 2.77852L23.1392 2.37689C22.3421 1.42421 21.2187 0.658331 20.1046 0.303411C19.3541 0.0699105 18.6782 -0.00480953 17.8205 0.0512305Z" fill="#DE1F55"/>
<path d="M14.5015 1.33089C15.4945 0.593037 16.7064 0.126036 17.8205 0.0513156C18.6782 -0.00472452 19.3541 0.0699956 20.1046 0.303496C21.2187 0.658417 22.3421 1.42429 23.1391 2.37698L23.4748 2.7786L23.4351 7.03931C23.3723 7.04104 23.2131 7.07022 23.0786 7.17308C22.9947 7.23379 22.5938 7.98099 21.7268 9.70889L20.5008 12.1607L19.2702 9.6949C18.0582 7.27114 18.035 7.23379 17.8438 7.13571C17.6154 7.01896 17.2938 7.0283 17.0886 7.16374C16.9908 7.22911 16.7856 7.60271 16.2636 8.64413L15.569 10.0358H13.7744H11.9844L11.9098 9.79292C11.6861 9.03172 11.6301 8.5554 11.6301 7.39723C11.6348 6.40719 11.6441 6.22039 11.7373 5.78608C11.9657 4.74934 12.4133 3.69859 12.9633 2.91403C13.3223 2.40966 14.0215 1.69049 14.5015 1.33089Z" fill="#F1475D"/>
<path d="M22.2768 11.8102L23.5074 9.35852L23.4787 21.5111C23.4787 21.5111 23.4981 21.6125 22.701 21.1642C17.9137 18.4696 14.5342 15.378 12.8467 12.1325C12.6742 11.8102 12.5391 11.53 12.5391 11.516C12.5391 11.4973 13.3595 11.4833 14.357 11.4833C16.3428 11.4833 16.3288 11.4833 16.5526 11.2125C16.6132 11.1377 16.8509 10.6941 17.084 10.2317L17.5035 9.38187L18.7248 11.8242C19.6664 13.7062 19.9741 14.29 20.0766 14.3554C20.1511 14.4067 20.319 14.4534 20.4635 14.4628C20.9437 14.4955 20.8877 14.5795 22.2768 11.8102Z" fill="#F1475D"/>
</g>
</g>
</g>
<defs>
<clipPath id="clip0_95_25">
<rect width="237" height="39" fill="white"/>
</clipPath>
</defs>
</svg>
